<?xml version="1.0" encoding="utf-8"?>
<!-- Generator: Adobe Illustrator 19.2.1, SVG Export Plug-In . SVG Version: 6.00 Build 0)  -->
<svg version="1.1" id="layer" xmlns="http://www.w3.org/2000/svg" xmlns:xlink="http://www.w3.org/1999/xlink" x="0px" y="0px"
	 viewBox="0 0 652 652" style="enable-background:new 0 0 652 652;" xml:space="preserve">
<style type="text/css">
	.st0{fill:#EE0000;}
	.st1{fill:#FFFFFF;}
</style>
<path class="st0" d="M115,417c2.5-1.5,8.2-4.5,8.9-5c1.1-0.7,1.7-0.6,1.8-0.2c0.1,1.3,0.1,4,1.8,4.6c0.5,0.2,1.7-0.4,1.9-0.1
	c0.6,0.9,0.6,0.7,0.8,1c0.2,0.3,1,0.1,1.2,0.3c0.5,0.4,0,1,0.2,1.3c0.4,0.5,1.2-0.3,1.6-0.2c0.7,0.1,0.9,1,0.8,1.5
	c-0.2,0.9,0.3,1.5,1.8,0.4c0.7-0.6,0.8-0.3,1.4-0.6c0.4-0.2,1-0.2,1.3,0.1c0.3,0.3,0.7,0.7,1.1,0.9c0.6,0.2,1.2,0,1.6,0.1
	c0.6,0.2,0.6,1,1.1,1.1c0.5,0.1,1-0.9,1.3-0.6c0.9,0.8-0.7,2.2,0.4,2.5c0.6,0.2,0.8-0.3,1.3-0.4c0.5-0.1,0.7-0.6,1.2-0.6
	c0.4,0,0.7,0.5,1.2,0.2c0.4-0.2,0.8-0.4,1.2-0.6c0.6-0.3,1.2-0.2,1.5-0.4c0.4-0.3,0.1-1.2,1.3-1c1.2,0.2-0.2,1.4,0.3,1.8
	c0.4,0.4,1.4,0,1.8-0.1c0.7-0.2,1.3-1,1.5-1.6c0.3-0.7,1.3-2.9,1.7-3.5c0.4-0.6,1.4-3,2-3.8c0.5-0.8,2.7-4.3,2.9-4.8
	c0.2-0.5,1-1.3,1.2-1.7c0.2-0.4,0.6-1.8,1.2-2.9c0.5-1.1,2-3.3,2.2-3.7c0.1-0.4,1.3-3.1,1.7-3.9s1.8-2.7,2.2-3.6
	c0.3-0.9,1.3-2.8,1.3-2.8l1-1.7c0,0,0.3-0.7,0.8-1.8c0.5-1,1.9-3.2,2.3-4c0.4-0.7,1.6-2.3,1.6-2.3l0.9-2l0.7-1.5
	c0,0,0.5-1.8,0.8-2.2c0.3-0.5,1.2-1.6,1.5-2.2c0.3-0.6,1.1-3.3,1.5-4.2c0.4-0.8,2.4-4.4,2.6-5c0.2-0.7,2.2-4.4,2.4-5.1
	c0.2-0.8,0.3-1.8,0.5-2.3c0.3-0.5,1.1-1.7,1.2-2c0.1-0.3,1.5-3.6,1.7-4.1c0.2-0.5,0.3-1.4,0.9-1.4c0.5,0,0.9,0.6,1.3,1.1
	c0.4,0.6,1.2,0.5,1.7,1c0.5,0.5,2,2.2,2.1,2.5c0.1,0.3,0.9,0.3,1.1,0.6c0.2,0.3,0.3,1,0.6,1.1c0.3,0.1,1.6,1.1,1.9,1.5
	c0.3,0.4,0.6,1.2,1,1.5c0.3,0.3,1.9,1.2,2.1,1.6c0.2,0.4,2.5,3.1,2.7,3.6c0.3,0.5,0.5,1.3,0.7,1.6c0.2,0.3,1,0.8,1.1,1.2
	c0.1,0.3,0.1,1.6,0.3,1.9c0.2,0.3,1.1,0.7,1.3,1.1c0.1,0.3,0.5,1.6,0.8,1.8c0.2,0.2,0.6,0.5,0.7,0.7c0.1,0.3,0.3,1.8,0.5,2
	c0.2,0.3,0.9,1.4,1.1,1.9c0.2,0.5,0.9,1.4,1,1.7c0.1,0.3,0.2,1.7,0.3,2.2c0.1,0.5,0.7,1.5,0.8,1.8c0.1,0.3,0.2,1.1,0.2,1.1l0.5,1.3
	c0,0,0.6,1.3,0.6,1.8c0,0.5,0.1,1,0.2,1.4c0.1,0.3,0.6,1.2,0.6,1.5c0,0.3,0.7,1.8,0.7,1.8s-0.1,1.4,0,1.7c0.1,0.3,0.7,1.3,0.7,1.6
	c0,0.3-0.2,1.2-0.2,1.2l0.3,0.5c0,0-0.2,0.7-0.1,1c0.1,0.3-0.1,0.9,0.1,1.1c0.2,0.2,0.7,1.6,0.7,1.6c-0.4,0.5-28.8,13.6-41,19.3
	c-17.5,8.2-54,26.5-57.9,28.7c-3.9,2.2-6.3,3.5-7.3,3.1c-2.2-1.1-5.7-4.2-8.1-10.9c-2-5.6-2-10.3-1.9-12.7c0.1-1.8,0-3.1,2.7-4.7
	C107.5,421.3,112.5,418.5,115,417L115,417z M64.5,316.4c-0.1-0.3-0.3-0.8,0.1-1.2c0.4-0.4,1-0.9,1.4-1c0.4-0.1,0.2-0.8,1.5-1
	c1-0.1,1.6-1.4,2.1-2.2c0.3-0.5,2.3-1.9,4.1-3c3.5-2.2,12.1-7,28.1-15.3c21.2-11,55.9-26.8,85-37.7c31.3-11.8,73.8-24.1,83.1-26.6
	c1-0.2,1.9-0.8,2.7-0.9c0.8-0.1,1.6,0.3,3.5-0.1c1.9-0.4,2.2-0.9,2.9-1.1c0.7-0.1,1.6,0.1,2,0.3c0.4,0.1,1.6,0.1,2,0.4
	c0.4,0.3,0.5,0.7,0.5,1.2c0,0.5,0.8,1.1,0.8,1.1s0.7,0.3,0.8,0.8c0.1,0.5-0.1,1.8-0.1,1.8s0.6,0,0.8,0.5c0.2,0.6,0,0.9,0,0.9
	s0.8,0.5,1.1,1.2c0.3,0.7,0,2.7,0.3,3.4c0.3,0.7,1.8,1.5,2,2.3c0.3,0.9,0.1,2,0.1,2s1,0.1,0.8,1.1c-0.1,1-1.4,3.1-1.4,3.7
	c0,0.5,0.8,2,0.5,3.1c-0.3,1.1-0.8,1.2-1.1,1.4c-0.3,0.2-3,0.6-4.2,0.9c-11.4,2.8-71.2,18.2-105.8,31.6
	c-22.2,8.6-46.4,16.7-77.1,31.5c-0.8,0.4-2.8,1.4-2.8,1.4s-2.5,1.3-3.5,1.7c-1,0.4-3.2,1.9-3.2,1.9s-1.8,1.1-2-0.1
	c-0.1-0.8-0.9-0.4-1.7-0.7c-0.6-0.2-1-0.8-1.2-1c-0.4-0.4-1.7,0.3-2.4,0.6c-0.7,0.3-0.3,1-1.3,1.1c-1,0.1-1.5,1.7-2.4,1.9
	c-1,0.2-3,1.3-4.1,1.8c-0.6,0.2-1.6,1.4-2.3,2c-0.7,0.6-2.8,1.3-3.4,1c-0.7-0.3,0-4-0.8-5.4c-0.3-0.5,0-1.2-0.1-1.6
	c-0.1-0.4-0.7-0.3-1.1-0.5c-0.4-0.1-0.5-0.8-0.8-1.2c-0.3-0.4-0.2-0.9-0.6-1.2c-0.1-0.1-0.5,0-0.8,0c-0.3,0-0.7-0.5-1-0.5
	C65.3,316.7,64.7,316.7,64.5,316.4L64.5,316.4z M196.8,297.4c-1.4-0.8-0.9-1.6,0.7-2.3c10.1-4.3,35.7-13.5,50.4-18.1
	c12.5-4,47.1-15.2,56.8-18c2.3-0.7,3.2-0.6,4.3,0.4c2.6,2.8,5.1,6.5,7.5,11.1c2.2,4.3,4.1,10.5,4.9,14.4c0.5,2.8-0.8,3.3-2.3,4
	c-10.7,4.8-37.1,16.4-48.1,21.5c-10.7,5.1-30.4,14.5-37,17.9c-2.8,1.4-2.3,2-4.2-0.2c-0.6-0.7-1.5-2.2-1.8-2.6
	c-0.3-0.4-4-3.7-4.4-4.1c-0.4-0.4-2.4-2.9-3-3.3c-0.6-0.4-2.3-2.9-2.9-3.1c-0.5-0.3-1.5-0.7-1.9-1.1c-0.4-0.4-1.1-1.3-1.5-1.5
	c-0.4-0.3-1.3-1.2-1.3-1.2l-1.3-1.2l-1.1-1.2c0,0-1-1.2-1.6-1.5c-0.7-0.3-1.6-1.4-1.9-1.8c-0.3-0.4-2.5-3.1-3.5-3.8
	c-1.4-0.9-2.9-1.8-4.3-2.8C198.7,298.6,198,298.1,196.8,297.4L196.8,297.4z M235.7,334.7c-1.1-1,0.3-1.2,1.5-1.7
	c4.5-1.7,31.1-10.1,54.3-16.2c23.1-6.1,56.6-13,61.5-14c2.1-0.4,2.9-0.1,4,1.6c1.2,2,3.8,8.6,4.8,13.9c1.2,6.7,0.1,13.6-0.5,15.3
	c-0.5,1.4-2.4,1.5-6.9,2.7c-2.7,0.7-14.2,3.7-19,5.1c-5.4,1.6-19.9,5.8-25.2,7.6c-6.6,2.2-15.2,5.1-15.2,5.1l-45.9,0.8
	c0,0-0.7-3.1-1.1-3.4c-0.4-0.3-1.1-1.8-1.5-2.2c-0.4-0.4-1-1.9-1-1.9s-0.4-1.6-0.8-1.9c-0.4-0.3-1.4-2.6-1.8-2.9
	c-0.4-0.3-1.3-1.5-1.7-2c-0.4-0.5-0.6-1.2-1.3-1.8c-0.7-0.5-1.5-1.6-2.1-1.9C237.2,336.6,236.8,335.8,235.7,334.7L235.7,334.7z
	 M180.2,246.3c-1.3,0-2.4,0-2.8-0.4c-0.2-0.2,0-0.6-0.3-0.9c-0.3-0.3-1-0.2-1.2,0c-0.2,0.1-0.1,0.1-0.6,0.3
	c-0.5,0.2-2.2-0.5-2.8-0.3c-0.6,0.2-1.9,0.3-2.3,0.1c-0.4-0.2-0.5-1.4-1.3-1.7c-0.4-0.2-1.7-0.9-2.1-1.6c-0.4-0.7-1.5-1.8-1.7-2.3
	c-0.2-0.5-0.6-1.3-0.7-1.7c-0.2-0.4-0.6-1.3-0.8-1.6c-0.3-0.3-0.6-0.6-0.9-0.9c-0.3-0.3-0.5-1.3-0.8-1.7c-0.1-0.2-0.4-0.6-0.6-1
	c-0.2-0.3-0.1-0.7-0.3-1.1c-0.2-0.4-0.6-0.9-0.7-1.3c-0.1-0.4-0.3-2.8-0.2-4.6c0.1-1.8,0-3.5,0.2-4.2c0.2-0.7,0.6-1.4,0.7-2.2
	c0.2-0.8,1.1-3.3,1.4-4.4c0.2-1.2,0.9-3.4,1.2-4.1c0.3-0.8,1.1-2.8,1.5-3.5c0.4-0.7,1.9-3,2.5-3.7c0.6-0.8,3.4-3.6,4.1-4.1
	c1.8-1.4,3.7-2.7,5.6-4c0.5-0.3,1.2-0.3,1.2-0.3l0.7-0.7c0,0,0.4-0.4,0.7-0.7c0.4-0.2,1.2-0.2,1.2-0.2s1-0.8,2-0.6
	c0.5,0.1,0.8-0.7,1.2-0.8c0.4-0.1,1.9-0.3,2.1-0.1c0.2,0.2,0.5,0.5,1.3,0.6c0.8,0.1,1.5,0,1.8,0c0.4,0.1,0.9,0.7,1.2,0.8
	c0.3,0.1,4,3.5,4.5,4.4c0.2,0.3,0.2,0.9,0.3,1c0.1,0.3,0.8,0.7,1,1.6c0.2,0.7,0.9,1,1,2c0,0.6,1.2,1.2,1.6,2.5
	c0.1,0.3,0.2,1.6,0.3,1.8c0.1,0.2,0.4,0.3,0.5,0.7c0.1,0.5,0.3,1.1,0.2,1.7c-0.1,0.6,1,2.7,0.9,3.9c-0.1,1.2-0.3,2.4-0.7,3.6
	c-0.3,1-0.1,2.8-0.3,3.6c-0.2,0.8-0.8,2.6-0.9,3.2c-0.1,0.6-1.7,4.4-1.9,4.8c-0.3,0.4-1.2,2.2-1.6,2.7c-0.4,0.5-3.6,4.9-4.1,5.5
	c-0.6,0.6-2,1.6-2.2,2c-0.4,0.6-0.7,1.3-1.1,1.9c-0.6,1-1.5,0.3-1.9,1c-0.6,1-1.6,1.2-1.8,1.8c-0.3,0.9-1,1.6-1.3,1.9
	C182.6,245.8,181,246.2,180.2,246.3L180.2,246.3z M88.5,380.8c0,0-13.4,4.5-18.8,6.4c-5.1,1.8-10.6,3.8-14.4,5.3
	c-4.5,1.8-12.6,5.1-14.5,5.8c-3,1.1-4.3,0.4-5.1-1.3c-0.8-1.8-2.7-5.5-3.8-9.8c-1.1-4.4-1.5-8-1.5-9.3c-0.1-1.3,1-3.7,2.7-4.6
	c1.6-0.9,5.5-3.3,8.7-5.1c6-3.4,26.6-14.4,38.9-20.8c13-6.7,33.5-16.7,44.6-22.1c11-5.4,29.1-14,31.3-15c2.2-1,4.5-2,5.6-2
	c1.1,0,0.7,0.5,0.7,1s-0.4,0.6-0.5,1.4c-0.1,0.8,0,1.7-0.3,2.6c-0.3,0.8-1,1.6-1.1,2.1c-0.1,0.5-0.2,2.5-0.8,3.2
	c-0.5,0.7-2.5,4.5-2.9,6.2c-0.4,1.8-1.3,4.7-1.7,5.3c-0.4,0.7-1.7,3.2-1.8,4.1c-0.1,0.8-1,2.8-1.3,3.6c-0.3,0.8-1.9,3.8-2.2,4.4
	c-0.3,0.5-1.4,4.2-1.6,4.7c-0.3,0.5-1.4,2.2-1.4,2.2l-0.5,2.3c0,0-1.5,2.2-1.5,2.6c0,0.4-1.1,4.1-1.6,4.9c-0.5,0.8-3.1,6.7-3.7,8.7
	c-0.5,2-1.5,5-1.8,5.7c-0.3,0.7-1.8,3.1-2,3.9c-0.3,0.8-1.5,4.9-1.9,5.7c-0.4,0.8-1.5,3.1-1.5,3.9c0,0.8-0.8,2.6-1.5,4.1
	c-0.7,1.5-1.5,4.1-1.9,5c-0.4,0.9-1,1.6-1.1,2.2c-0.1,0.5-0.3,2.1-0.4,2.5c-0.1,0.4-0.3,0.7-0.4,1.1c-0.7,0.3-37.3,16.1-42.5,18.5
	c-5.2,2.4-42.3,20.1-44.7,21.2c-2.3,1.1-5.4,3.5-7.6,1.9c-2.9-2-5.7-6.2-7.6-9.9c-1.6-3.1-3.3-8.3-3.5-12c-0.3-4.7,1.6-5.6,8.5-9.5
	c3.4-2,30.1-16.1,38.7-20.5C70.9,390,88.5,380.8,88.5,380.8z"/>
<path d="M293,407.8h8l-8.9,34.8h-10.7l-5.7-22.2h-0.1l-5.7,22.2h-8l8.9-34.8h10.8l5.4,22.6h0.1L293,407.8L293,407.8z M312.4,417.2
	c-1.1,4.5,8.5,8.9,6.8,17c-1,4.7-4,9.1-13.5,9c-3,0-6.7-0.8-9.3-1.7l1.9-8.1c2.2,1.2,4.6,2,7.2,2c1.5,0,4.2-0.1,4.9-2.9
	c1-3.7-8.6-8.2-7.1-16.3c0.8-4.1,5-9,13.2-9c2.3,0,5.4,0.4,8.3,2c0,0.3-1.8,7.2-1.8,7.2c-1.8-1.1-3.3-1.8-6.1-1.8
	C315.6,414.7,312.9,415.3,312.4,417.2z M219.5,417.2c-1.2,4.6,8.5,8.9,6.8,17c-1,4.7-4,9.1-13.6,9c-3,0-6.7-0.8-9.3-1.7l1.9-8.1
	c2.1,1.2,4.6,2,7.1,2c1.5,0,4.2-0.1,4.9-2.9c1-3.7-8.6-8.2-7.1-16.3c0.8-4.1,5-9,13.2-9c2.3,0,5.7,0.3,8.8,2.3c0,0.3-2.3,7-2.3,7
	c-1.8-1.1-3.4-1.8-6.1-1.8C222.6,414.7,219.9,415.3,219.5,417.2L219.5,417.2z M455.1,430.5l5.8-22.6h8l-8.9,34.7h-10.7l-5.6-22.2
	h-0.1l-5.7,22.2h-8l8.9-34.7h10.8L455.1,430.5L455.1,430.5z M353,415.3l-1.5,6.1h11.1l-1.9,7.4h-11.1l-3.5,13.7h-9.2l8.9-34.7h22.4
	l-1.9,7.5C366.2,415.3,353,415.3,353,415.3z M498,407.8l-1.9,7.4h-8.3l-7,27.3h-9.2l7-27.3h-8.4l1.9-7.4H498z M501.2,407.8h9.2
	l-8.9,34.8h-9.2L501.2,407.8z M531.1,428.8h-11.5l-1.6,6.3h14.5l-1.9,7.5H507l8.9-34.8h23.7l-1.9,7.4h-14.5l-1.6,6.1H533
	L531.1,428.8z M589.8,428.8h-11.7l-1.6,6.3H591l-1.9,7.5h-23.7l8.9-34.7h23.6l-1.9,7.4h-14.5l-1.6,6.1l11.7,0L589.8,428.8z
	 M608.9,417.2c-1.3,4.4,8.5,8.9,6.8,17c-1,4.8-4,9.1-13.6,9c-3,0-6.7-0.8-9.3-1.7l1.9-8.1c2.1,1.2,4.6,2,7.1,2
	c1.5,0,4.2-0.1,4.9-2.9c1-3.7-8.6-8.2-7.1-16.3c0.8-4.1,5-9,13.2-9c2.3,0,5.4,0.4,8.3,2c0,0.3-1.8,7.2-1.8,7.2
	c-1.7-1.1-3.3-1.8-6-1.8C612,414.7,609.4,415.4,608.9,417.2L608.9,417.2z M386.3,427.3c0.1,0.7,3.3,15.3,3.3,15.3h-9.9l-3.2-19.3
	l3,0h0.2c4,0.1,6.2-1.7,6.9-4.5c0.9-3.7-1.9-3.7-3.2-3.7H379l-7,27.5h-8.8l8.9-34.8h15.5c7.7,0,9.7,3.7,7.9,10.6
	C394.5,422.3,390.9,426.5,386.3,427.3L386.3,427.3z M558.4,427.3c0.1,0.7,3.3,15.3,3.3,15.3h-9.9l-3.2-19.3h3.2
	c4,0.1,6.2-1.8,6.9-4.5c0.9-3.7-1.9-3.7-3.2-3.7h-4.5l-7,27.5h-8.8l8.9-34.8h15.5c7.7,0,9.7,3.7,8,10.6
	C566.6,422.3,563,426.5,558.4,427.3L558.4,427.3z M370.1,397.8h-23.6l8.9-34.7l23.6,0l-1.9,7.5h-14.5l-1.6,6.1h11.8L371,384h-11.8
	l-1.6,6.3H372L370.1,397.8L370.1,397.8z M308.8,397.8h-23.7L294,363h23.6l-1.9,7.4h-14.5l-1.6,6.1h11.7l-1.9,7.4h-11.7l-1.6,6.3
	h14.5C310.7,390.3,308.8,397.8,308.8,397.8z M389.9,398.3c-10.5,0-15.9-6.5-13-18c3-11.5,11.8-18,22.2-18c2.6,0,6,0.4,8.2,1.2
	l-2,7.8c-2.1-0.8-4.2-1.4-6.6-1.4c-7.1,0-11.4,5.8-12.6,10.4c-1.4,5.4,0,10.4,5.7,10.4c3.6,0,6.4-0.7,9.1-1.4l-2.2,8
	C396.2,397.8,391.6,398.3,389.9,398.3L389.9,398.3z M412.5,397.8h-9.2l8.9-34.7h9.2L412.5,397.8L412.5,397.8z M258.4,372.9
	l-6.3,24.8h-7.8l8.9-34.7H266l-0.6,21.8h0.1l10.8-21.8h12.2l-8.9,34.7h-7.8l6.3-24.9h-0.1l-12.4,24.9l-7.8,0L258.4,372.9
	C258.4,372.9,258.4,372.9,258.4,372.9z M426,397.8h-8l8.9-34.7l10.8,0l5.4,22.6h0.1l5.8-22.6h8l-8.9,34.7h-10.7l-5.6-22.2h-0.1
	L426,397.8L426,397.8z M468.4,372.4c-1.2,4.6,8.5,8.9,6.8,17c-1,4.7-4,9-13.6,9c-3,0-6.7-0.8-9.3-1.7l1.9-8.1c2.1,1.2,4.6,2,7.1,2
	c1.5,0,4.2-0.1,4.9-2.9c1-3.7-8.6-8.2-7.1-16.3c0.8-4.1,5-9,13.2-9c2.3,0,5.4,0.4,8.3,2c0,0.3-1.8,7.2-1.8,7.2
	c-1.7-1.1-3.3-1.8-6.1-1.8C471.5,369.9,468.8,370.6,468.4,372.4L468.4,372.4z"/>
<path d="M246.6,407.8h11c0.7,11.4,2.1,23.2,3.2,34.8h-9.7l-0.6-10h-10.7l-6,10h-10C231.6,431.3,239,419.5,246.6,407.8L246.6,407.8z"
	/>
<polygon class="st1" points="243.8,425.3 249.9,415.3 250,415.3 250.6,425.3 "/>
<path d="M418,407.3c10.3,0,16,6.7,12.7,19c-3.2,11.3-12.1,17-21.8,17c-10.4,0-15.8-6.5-12.8-18C399,413.8,407.7,407.3,418,407.3z"/>
<path class="st1" d="M421.8,425.3c-1.5,5.5-5.7,10.4-11,10.4c-5.5,0-7-5-5.6-10.4c1.4-5.4,5.4-10.4,10.9-10.4
	C421.4,414.9,423,419.7,421.8,425.3z"/>
<path d="M347.5,380.4c-2.6,10.1-9.2,17.4-19.3,17.4h-14.5l8.9-34.7H339C343.3,363,351.2,365.7,347.5,380.4L347.5,380.4z"/>
<path class="st1" d="M338.3,380.4c-1.3,5.1-4.9,10-10,10h-4l5.1-19.9h4.6C338.8,370.5,339.9,373.9,338.3,380.4z"/>
</svg>
